<svg width="49" height="49" viewBox="0 0 49 49" fill="none" xmlns="http://www.w3.org/2000/svg">
<path d="M4.55298 24.1167C4.55298 14.6886 4.55298 9.97456 7.48192 7.04564C10.4108 4.1167 15.1249 4.1167 24.553 4.1167C33.981 4.1167 38.6952 4.1167 41.624 7.04564C44.553 9.97456 44.553 14.6886 44.553 24.1167C44.553 33.5447 44.553 38.2589 41.624 41.1877C38.6952 44.1167 33.981 44.1167 24.553 44.1167C15.1249 44.1167 10.4108 44.1167 7.48192 41.1877C4.55298 38.2589 4.55298 33.5447 4.55298 24.1167Z" stroke="#FF5C49" stroke-width="3"/>
<path d="M24.553 32.1167C28.9713 32.1167 32.553 28.535 32.553 24.1167C32.553 19.6984 28.9713 16.1167 24.553 16.1167C20.1347 16.1167 16.553 19.6984 16.553 24.1167C16.553 28.535 20.1347 32.1167 24.553 32.1167Z" stroke="#FF5C49" stroke-width="3"/>
</svg>
